<svg xmlns="http://www.w3.org/2000/svg" version="1.1" xmlns:xlink="http://www.w3.org/1999/xlink" xmlns:svgjs="http://svgjs.dev/svgjs" viewBox="0 0 800 400"><path d="M4.035874366760254,3.5874438285827637C63.1434961271286,58.52017879724503,186.18385162830353,193.96412240743638,245.29147338867188,227.8026885986328C304.39909514904025,261.64125478982925,272.09864768981936,153.1300478363037,245.29147338867188,141.70404052734375C218.48429908752442,130.2780332183838,113.02241333007812,127.33184707641601,135.8744354248047,181.16592407226562C158.72645751953124,235.00000106811524,227.38117607116698,353.0851908874512,338.5650329589844,361.4349670410156C449.7488898468018,369.7847431945801,547.0583018493652,254.57847785949707,589.6860961914062,215.24664306640625C632.3138905334473,175.91480827331543,523.7623129272461,182.87892822265624,512.5560302734375,200.89686584472656C501.3497476196289,218.91480346679688,509.22867706298825,277.5829704284668,543.9461669921875,288.78924560546875C578.6636569213867,299.9955207824707,612.5111825561523,292.3408031082153,654.2600708007812,246.6367645263672C696.0089590454102,200.93272594451904,686.8834143066406,154.53811170578004,714.3497924804688,102.24214935302734C741.8161706542969,49.946187000274655,766.3677368164062,48.345290889739985,766.3677368164062,33.18385696411133C766.3677368164062,18.022423038482668,711.932765197754,29.372197856903078,714.3497924804688,40.35874557495117C716.7668197631835,51.345293292999266,761.0717306518554,68.79820886611938,776.233154296875,78.02690887451172" fill="none" stroke-width="3" stroke="url(&quot;#SvgjsLinearGradient1002&quot;)" stroke-linecap="butt" stroke-dasharray="7 13" stroke-opacity="0.38" transform="matrix(1.0310912041257634,0.17632698070846498,-0.18729141700863783,0.9378175917484732,31.958905816783954,-40.15566375798812)"></path><defs><linearGradient id="SvgjsLinearGradient1002"><stop stop-color="#a3abf3" offset="0"></stop><stop stop-color="#dfe2fc" offset="1"></stop></linearGradient></defs></svg>